<mxfile host="app.diagrams.net" modified="2024-01-15T09:13:54.800Z" agent="Mozilla/5.0 (Windows NT 10.0; Win64; x64) AppleWebKit/537.36 (KHTML, like Gecko) Chrome/120.0.0.0 Safari/537.36" version="22.1.18" etag="3bhdUX2WDEIKWeHClx5N" type="github">
  <diagram name="Halaman-1" id="aV43cFsy3dRGnyZu7lk1">
    <mxGraphModel>
      <root>
        <mxCell id="0" />
        <mxCell id="1" parent="0" />
      </root>
    </mxGraphModel>
  </diagram>
</mxfile>
